# This file uses centimeters as units for non-parametric coordinates.

mtllib blade.mtl
g default
v -0.238199 -0.238199 34.309733
v 0.238199 -0.238199 34.309733
v -0.238199 0.238199 34.309733
v 0.238199 0.238199 34.309733
v -0.714524 0.714524 11.436582
v -0.238175 0.714524 11.436582
v 0.238175 0.714524 11.436582
v 0.714524 0.714524 11.436582
v -0.714524 0.714524 -25.172889
v -0.238175 0.714524 -25.172889
v 0.238175 0.714524 -25.172889
v 0.714524 0.714524 -25.172889
v -0.714524 -0.714524 -25.172889
v -0.238175 -0.714524 -25.172889
v 0.238175 -0.714524 -25.172889
v 0.714524 -0.714524 -25.172889
v -0.714524 -0.714524 11.436582
v -0.238175 -0.714524 11.436582
v 0.238175 -0.714524 11.436582
v 0.714524 -0.714524 11.436582
v 0.714524 -0.238175 -25.172889
v 0.714524 -0.238175 11.436582
v 0.714524 0.238175 -25.172889
v 0.714524 0.238175 11.436582
v -0.714524 -0.238175 -25.172889
v -0.714524 -0.238175 11.436582
v -0.714524 0.238175 -25.172889
v -0.714524 0.238175 11.436582
v -0.714524 -0.714524 33.833432
v -0.238175 -0.714524 33.833432
v 0.238175 -0.714524 33.833432
v 0.714524 -0.714524 33.833432
v -0.714524 0.714524 33.833432
v -0.238175 0.714524 33.833432
v 0.238175 0.714524 33.833432
v 0.714524 0.714524 33.833432
v -0.714524 -0.238175 33.833432
v 0.714524 -0.238175 33.833432
v -0.714524 0.238175 33.833432
v 0.714524 0.238175 33.833432
v -0.890052 0.890052 -25.172889
v -0.238175 1.065579 -25.172889
v -0.238175 0.962758 -34.557978
v -0.917206 0.917206 -34.512419
v 0.238175 1.065579 -25.172889
v 0.238175 0.962758 -34.557978
v 0.890052 0.890052 -25.172889
v 0.917206 0.917206 -34.512419
v -0.238175 0.238175 -34.660790
v -0.962758 0.238175 -34.557978
v 0.238175 0.238175 -34.660790
v 0.962758 0.238175 -34.557978
v -0.238175 -0.238175 -34.660790
v -0.962758 -0.238175 -34.557978
v 0.238175 -0.238175 -34.660790
v 0.962758 -0.238175 -34.557978
v -0.238175 -0.962758 -34.557978
v -0.917206 -0.917206 -34.512419
v 0.238175 -0.962758 -34.557978
v 0.917206 -0.917206 -34.512419
v -0.238175 -1.065579 -25.172889
v -0.890052 -0.890052 -25.172889
v 0.238175 -1.065579 -25.172889
v 0.890052 -0.890052 -25.172889
v 1.065579 -0.238175 -25.172889
v 1.065579 0.238175 -25.172889
v -1.065579 -0.238175 -25.172889
v -1.065579 0.238175 -25.172889
vt 0.496382 0.038035
vt 0.538391 0.038035
vt 0.538391 0.038035
vt 0.496382 0.038035
vt 0.454379 0.057275
vt 0.496384 0.057275
vt 0.760849 0.038036
vt 0.787093 0.038036
vt 0.454379 0.057275
vt 0.787093 0.961964
vt 0.538389 0.057275
vt 0.760849 0.961964
vt 0.136667 0.038036
vt 0.200147 0.038036
vt 0.200147 0.951953
vt 0.134023 0.947516
vt 0.246533 0.038036
vt 0.246533 0.951953
vt 0.310013 0.038036
vt 0.312657 0.947516
vt 0.200147 0.961964
vt 0.129587 0.951953
vt 0.246533 0.961964
vt 0.317093 0.951953
vt 0.200147 0.961964
vt 0.129587 0.951953
vt 0.246533 0.961964
vt 0.317093 0.951953
vt 0.200147 0.951953
vt 0.134023 0.947516
vt 0.246533 0.951953
vt 0.312657 0.947516
vt 0.200147 0.038036
vt 0.136667 0.038036
vt 0.246533 0.038036
vt 0.310013 0.038036
vt 0.813337 0.038036
vt 0.813337 0.961964
vt 0.580393 0.057275
vt 0.580393 0.057275
vt 0.839581 0.038036
vt 0.454379 0.057275
vt 0.839581 0.961964
vt 0.454379 0.057275
vt 0.327106 0.038036
vt 0.760849 0.961964
vt 0.496384 0.057275
vt 0.327106 0.038036
vt 0.787093 0.961964
vt 0.538389 0.057275
vt 0.119574 0.038036
vt 0.580393 0.057275
vt 0.787093 0.038036
vt 0.119574 0.038036
vt 0.580393 0.057275
vt 0.760849 0.038036
vt 0.496384 0.961964
vt 0.454379 0.961964
vt 0.538389 0.961964
vt 0.580393 0.961964
vt 0.454379 0.961964
vt 0.496384 0.961964
vt 0.538389 0.961964
vt 0.580393 0.961964
vt 0.580393 0.961964
vt 0.580393 0.961964
vt 0.454379 0.961964
vt 0.454379 0.961964
vt 0.153760 0.038036
vt 0.200147 0.038036
vt 0.246533 0.038036
vt 0.292920 0.038036
vt 0.200147 0.038036
vt 0.153760 0.038036
vt 0.246533 0.038036
vt 0.292920 0.038036
vt 0.292920 0.038036
vt 0.292920 0.038036
vt 0.153760 0.038036
vt 0.153760 0.038036
vt 0.813337 0.961964
vt 0.813337 0.038036
vt 0.839581 0.961964
vt 0.839581 0.038036
vt 0.839581 0.961964
vt 0.839581 0.038036
vt 0.839581 0.961964
vt 0.839581 0.038036
vt 0.760849 0.038036
vt 0.760849 0.961964
vt 0.760849 0.038036
vt 0.760849 0.961964
vn 0.000000 0.000000 1.000000
vn 0.000000 0.000000 1.000000
vn 0.000000 0.000000 1.000000
vn 0.000000 0.000000 1.000000
vn 0.000000 1.000000 0.000000
vn 0.000000 1.000000 0.000000
vn 0.000000 1.000000 0.000000
vn 0.000000 1.000000 0.000000
vn 0.000000 1.000000 0.000000
vn 0.000000 1.000000 0.000000
vn 0.000000 1.000000 0.000000
vn 0.000000 1.000000 0.000000
vn -0.163990 0.986455 -0.003749
vn -0.093111 0.995632 -0.006900
vn -0.097090 0.995253 -0.006725
vn -0.163990 0.986455 -0.003749
vn 0.093111 0.995632 -0.006900
vn 0.097090 0.995253 -0.006725
vn 0.163990 0.986455 -0.003749
vn 0.163990 0.986455 -0.003749
vn -0.107971 0.107970 -0.988274
vn -0.062457 0.121894 -0.990576
vn -0.072512 0.072512 -0.994728
vn -0.121895 0.062456 -0.990576
vn 0.062459 0.121894 -0.990576
vn 0.072513 0.072512 -0.994728
vn 0.107974 0.107970 -0.988273
vn 0.121897 0.062456 -0.990576
vn -0.072511 -0.072512 -0.994728
vn -0.121893 -0.062456 -0.990576
vn 0.072511 -0.072512 -0.994728
vn 0.121893 -0.062456 -0.990576
vn -0.062455 -0.121894 -0.990576
vn -0.107968 -0.107970 -0.988274
vn 0.062455 -0.121894 -0.990576
vn 0.107968 -0.107970 -0.988274
vn -0.163990 -0.986455 -0.003749
vn -0.097090 -0.995253 -0.006725
vn -0.093111 -0.995632 -0.006900
vn -0.163990 -0.986455 -0.003749
vn 0.097090 -0.995253 -0.006725
vn 0.093111 -0.995632 -0.006900
vn 0.163990 -0.986455 -0.003749
vn 0.163990 -0.986455 -0.003749
vn 0.000000 -1.000000 0.000000
vn 0.000000 -1.000000 0.000000
vn 0.000000 -1.000000 0.000000
vn 0.000000 -1.000000 0.000000
vn 0.000000 -1.000000 0.000000
vn 0.000000 -1.000000 0.000000
vn 0.000000 -1.000000 0.000000
vn 0.000000 -1.000000 0.000000
vn 0.986455 -0.163990 -0.003749
vn 0.986455 -0.163990 -0.003749
vn 0.995253 -0.097090 -0.006725
vn 0.995632 -0.093111 -0.006900
vn 1.000000 0.000000 0.000000
vn 1.000000 0.000000 0.000000
vn 1.000000 0.000000 0.000000
vn 1.000000 0.000000 0.000000
vn 0.995253 0.097090 -0.006725
vn 0.995632 0.093111 -0.006900
vn 1.000000 0.000000 0.000000
vn 1.000000 0.000000 0.000000
vn 0.986455 0.163990 -0.003749
vn 0.986455 0.163990 -0.003749
vn 1.000000 0.000000 0.000000
vn 1.000000 0.000000 0.000000
vn -0.986455 -0.163990 -0.003749
vn -0.986455 -0.163990 -0.003749
vn -0.995632 -0.093111 -0.006900
vn -0.995253 -0.097090 -0.006725
vn -1.000000 0.000000 0.000000
vn -1.000000 0.000000 0.000000
vn -1.000000 0.000000 0.000000
vn -1.000000 0.000000 0.000000
vn -0.995632 0.093111 -0.006900
vn -0.995253 0.097090 -0.006725
vn -1.000000 0.000000 0.000000
vn -1.000000 0.000000 0.000000
vn -0.986455 0.163990 -0.003749
vn -0.986455 0.163990 -0.003749
vn -1.000000 0.000000 0.000000
vn -1.000000 0.000000 0.000000
vn 0.000000 -0.707089 0.707125
vn 0.000000 -0.707089 0.707125
vn 0.000000 -0.707089 0.707125
vn -0.707089 0.000000 0.707125
vn -0.707089 0.000000 0.707124
vn -0.707089 0.000000 0.707124
vn 0.000000 -0.707089 0.707125
vn 0.000000 -0.707089 0.707125
vn 0.000000 -0.707089 0.707125
vn 0.707089 0.000000 0.707124
vn 0.707089 0.000000 0.707124
vn 0.707089 0.000000 0.707124
vn -0.707089 0.000000 0.707124
vn -0.707089 0.000000 0.707124
vn -0.707089 0.000000 0.707124
vn 0.000000 0.707089 0.707125
vn 0.000000 0.707089 0.707125
vn 0.000000 0.707089 0.707125
vn 0.000000 0.707089 0.707125
vn 0.000000 0.707089 0.707125
vn 0.000000 0.707089 0.707125
vn 0.707089 0.000000 0.707125
vn 0.707089 0.000000 0.707124
vn 0.707089 0.000000 0.707124
vn 0.000000 1.000000 0.000000
vn 0.000000 1.000000 0.000000
vn 0.000000 1.000000 0.000000
vn 0.000000 1.000000 0.000000
vn 0.000000 -1.000000 0.000000
vn 0.000000 -1.000000 0.000000
vn 0.000000 -1.000000 0.000000
vn 0.000000 -1.000000 0.000000
vn 1.000000 0.000000 0.000000
vn 1.000000 0.000000 0.000000
vn 1.000000 0.000000 0.000000
vn 1.000000 0.000000 0.000000
vn -1.000000 0.000000 0.000000
vn -1.000000 0.000000 0.000000
vn -1.000000 0.000000 0.000000
vn -1.000000 0.000000 0.000000
vn 0.000000 0.000000 1.000000
vn 0.000000 0.000000 1.000000
vn 0.000000 0.000000 1.000000
vn 0.000000 0.000000 1.000000
vn 0.000000 0.000000 1.000000
vn 0.000000 0.000000 1.000000
vn -0.000001 0.000000 1.000000
vn -0.000001 0.000000 1.000000
vn 0.000000 0.000000 1.000000
vn 0.000001 0.000000 1.000000
vn 0.000001 0.000000 1.000000
vn 0.000000 0.000000 1.000000
vn 0.000000 0.000000 1.000000
vn 0.000000 0.000000 1.000000
vn 0.000000 0.000000 1.000000
vn 0.000000 0.000000 1.000000
vn 0.000000 0.000000 1.000000
vn 0.000000 0.000000 1.000000
vn -0.000001 0.000000 1.000000
vn -0.000001 0.000000 1.000000
vn 0.000001 0.000000 1.000000
vn 0.000001 0.000000 1.000000
vn 0.000000 0.000000 1.000000
vn 0.000000 0.000000 1.000000
s off
g pCube3
usemtl initialShadingGroup
f 1/1/1 2/2/2 4/3/3 3/4/4
s 1
f 5/7/5 6/8/6 10/10/7 9/12/8
f 6/8/6 7/37/9 11/38/10 10/10/7
f 7/37/9 8/41/11 12/43/12 11/38/10
s 2
f 41/13/13 42/14/14 43/15/15 44/16/16
f 42/14/14 45/17/17 46/18/18 43/15/15
f 45/17/17 47/19/19 48/20/20 46/18/18
s 3
f 44/16/21 43/15/22 49/21/23 50/22/24
f 43/15/22 46/18/25 51/23/26 49/21/23
f 46/18/25 48/20/27 52/24/28 51/23/26
f 50/22/24 49/21/23 53/25/29 54/26/30
f 49/21/23 51/23/26 55/27/31 53/25/29
f 51/23/26 52/24/28 56/28/32 55/27/31
f 54/26/30 53/25/29 57/29/33 58/30/34
f 53/25/29 55/27/31 59/31/35 57/29/33
f 55/27/31 56/28/32 60/32/36 59/31/35
s 4
f 58/30/37 57/29/38 61/33/39 62/34/40
f 57/29/38 59/31/41 63/35/42 61/33/39
f 59/31/41 60/32/43 64/36/44 63/35/42
s 5
f 13/46/45 14/49/46 18/53/47 17/56/48
f 14/49/46 15/81/49 19/82/50 18/53/47
f 15/81/49 16/83/51 20/84/52 19/82/50
s 6
f 64/36/53 60/32/54 56/28/55 65/45/56
s 7
f 20/84/57 16/83/58 21/85/59 22/86/60
s 6
f 65/45/56 56/28/55 52/24/61 66/48/62
s 7
f 22/86/60 21/85/59 23/87/63 24/88/64
s 6
f 66/48/62 52/24/61 48/20/65 47/19/66
s 7
f 24/88/64 23/87/63 12/43/67 8/41/68
s 8
f 58/30/69 62/34/70 67/51/71 54/26/72
s 9
f 13/46/73 17/56/74 26/89/75 25/90/76
s 8
f 54/26/72 67/51/71 68/54/77 50/22/78
s 9
f 25/90/76 26/89/75 28/91/79 27/92/80
s 8
f 50/22/78 68/54/77 41/13/81 44/16/82
s 9
f 27/92/80 28/91/79 5/7/83 9/12/84
s 10
f 1/1/85 29/5/86 30/6/87
s 11
f 29/5/88 1/1/89 37/9/90
s 10
f 1/1/85 30/6/87 31/11/91 2/2/92
f 2/2/92 31/11/91 32/39/93
s 12
f 2/2/94 32/39/95 38/40/96
s 11
f 3/4/97 33/42/98 39/44/99
s 13
f 33/42/100 3/4/101 34/47/102
f 34/47/102 3/4/101 4/3/103 35/50/104
f 35/50/104 4/3/103 36/52/105
s 12
f 36/52/106 4/3/107 40/55/108
s 11
f 37/9/90 1/1/89 3/4/97 39/44/99
s 12
f 2/2/94 38/40/96 40/55/108 4/3/107
s 1
f 33/42/109 34/47/110 6/57/6 5/58/5
f 34/47/110 35/50/111 7/59/9 6/57/6
f 35/50/111 36/52/112 8/60/11 7/59/9
s 5
f 17/61/48 18/62/47 30/6/113 29/5/114
f 18/62/47 19/63/50 31/11/115 30/6/113
f 19/63/50 20/64/52 32/39/116 31/11/115
s 7
f 32/39/117 20/64/57 22/65/60 38/40/118
f 38/40/118 22/65/60 24/66/64 40/55/119
f 40/55/119 24/66/64 8/60/68 36/52/120
s 9
f 17/61/74 29/5/121 37/9/122 26/67/75
f 26/67/75 37/9/122 39/44/123 28/68/79
f 28/68/79 39/44/123 33/42/124 5/58/83
s 14
f 9/69/125 10/70/126 42/14/127 41/13/128
f 10/70/126 11/71/129 45/17/130 42/14/127
f 11/71/129 12/72/131 47/19/132 45/17/130
f 14/73/133 13/74/134 62/34/135 61/33/136
f 15/75/137 14/73/133 61/33/136 63/35/138
f 16/76/139 15/75/137 63/35/138 64/36/140
f 21/77/141 16/76/139 64/36/140 65/45/142
f 23/78/143 21/77/141 65/45/142 66/48/144
f 12/72/131 23/78/143 66/48/144 47/19/132
f 13/74/134 25/79/145 67/51/146 62/34/135
f 25/79/145 27/80/147 68/54/148 67/51/146
f 27/80/147 9/69/125 41/13/128 68/54/148
