# This file uses centimeters as units for non-parametric coordinates.

mtllib Block.mtl
g default
v 6.331447 -7.914111 6.331447
v 7.914111 -6.331447 6.331447
v 6.331447 -6.331447 7.914111
v 6.331447 -6.331447 -7.914111
v 7.914111 -6.331447 -6.331447
v 6.331447 -7.914111 -6.331447
v 6.331447 6.331447 7.914111
v 7.914111 6.331447 6.331447
v 6.331447 7.914111 6.331447
v 6.331447 7.914111 -6.331447
v 7.914111 6.331447 -6.331447
v 6.331447 6.331447 -7.914111
v -6.331447 6.331447 7.914111
v -6.331447 7.914111 6.331447
v -7.914111 6.331447 6.331447
v -7.914111 6.331447 -6.331447
v -6.331447 7.914111 -6.331447
v -6.331447 6.331447 -7.914111
v -6.331447 -6.331447 7.914111
v -7.914111 -6.331447 6.331447
v -6.331447 -7.914111 6.331447
v -6.331447 -7.914111 -6.331447
v -7.914111 -6.331447 -6.331447
v -6.331447 -6.331447 -7.914111
vt 0.569505 0.561096
vt 0.929559 0.561096
vt 0.929559 0.921149
vt 0.569505 0.921149
vt 0.569505 0.516095
vt 0.929559 0.516095
vt 0.974559 0.921149
vt 0.974559 0.561096
vt 0.569505 0.966151
vt 0.929559 0.966151
vt 0.524504 0.561096
vt 0.524504 0.921149
vt 0.080904 0.558080
vt 0.440958 0.558080
vt 0.440958 0.918134
vt 0.080904 0.918134
vt 0.440958 0.513080
vt 0.080904 0.513080
vt 0.485959 0.558080
vt 0.485959 0.918134
vt 0.440958 0.963135
vt 0.080904 0.963135
vt 0.035903 0.918134
vt 0.035903 0.558080
vt 0.275393 0.477277
vt 0.218956 0.477277
vt 0.218956 0.025725
vt 0.275393 0.025725
vt 0.783383 0.477277
vt 0.726946 0.477277
vt 0.726946 0.025725
vt 0.783383 0.025725
vt 0.726946 0.477277
vt 0.783383 0.477277
vt 0.783383 0.025725
vt 0.726946 0.025725
vt 0.218956 0.477277
vt 0.275393 0.477277
vt 0.275393 0.025725
vt 0.218956 0.025725
vn 0.000000 -0.707107 0.707107
vn 0.000000 -0.707107 0.707107
vn 0.000000 -0.707107 0.707107
vn 0.000000 -0.707107 0.707107
vn 0.707107 -0.707107 0.000000
vn 0.707107 -0.707107 0.000000
vn 0.707107 -0.707107 0.000000
vn 0.707107 -0.707107 0.000000
vn 0.707107 0.000000 0.707107
vn 0.707107 0.000000 0.707107
vn 0.707107 0.000000 0.707107
vn 0.707107 0.000000 0.707107
vn 0.000000 -0.707107 -0.707107
vn 0.000000 -0.707107 -0.707107
vn 0.000000 -0.707107 -0.707107
vn 0.000000 -0.707107 -0.707107
vn 0.707107 0.000000 -0.707107
vn 0.707107 0.000000 -0.707107
vn 0.707107 0.000000 -0.707107
vn 0.707107 0.000000 -0.707107
vn 0.000000 0.707107 0.707107
vn 0.000000 0.707107 0.707107
vn 0.000000 0.707107 0.707107
vn 0.000000 0.707107 0.707107
vn 0.707107 0.707107 0.000000
vn 0.707107 0.707107 0.000000
vn 0.707107 0.707107 0.000000
vn 0.707107 0.707107 0.000000
vn 0.000000 0.707107 -0.707107
vn 0.000000 0.707107 -0.707107
vn 0.000000 0.707107 -0.707107
vn 0.000000 0.707107 -0.707107
vn -0.707107 0.000000 0.707107
vn -0.707107 0.000000 0.707107
vn -0.707107 0.000000 0.707107
vn -0.707107 0.000000 0.707107
vn -0.707107 0.707107 0.000000
vn -0.707107 0.707107 0.000000
vn -0.707107 0.707107 0.000000
vn -0.707107 0.707107 0.000000
vn -0.707107 0.000000 -0.707107
vn -0.707107 0.000000 -0.707107
vn -0.707107 0.000000 -0.707107
vn -0.707107 0.000000 -0.707107
vn -0.707107 -0.707107 0.000000
vn -0.707107 -0.707107 0.000000
vn -0.707107 -0.707107 0.000000
vn -0.707107 -0.707107 0.000000
vn 1.000000 0.000000 0.000000
vn 1.000000 0.000000 0.000000
vn 1.000000 0.000000 0.000000
vn 1.000000 0.000000 0.000000
vn 0.000000 1.000000 0.000000
vn 0.000000 1.000000 0.000000
vn 0.000000 1.000000 0.000000
vn 0.000000 1.000000 0.000000
vn -1.000000 0.000000 0.000000
vn -1.000000 0.000000 0.000000
vn -1.000000 0.000000 0.000000
vn -1.000000 0.000000 0.000000
vn 0.000000 -1.000000 0.000000
vn 0.000000 -1.000000 0.000000
vn 0.000000 -1.000000 0.000000
vn 0.000000 -1.000000 0.000000
vn 0.000000 0.000000 -1.000000
vn 0.000000 0.000000 -1.000000
vn 0.000000 0.000000 -1.000000
vn 0.000000 0.000000 -1.000000
vn 0.000000 0.000000 1.000000
vn 0.000000 0.000000 1.000000
vn 0.000000 0.000000 1.000000
vn 0.000000 0.000000 1.000000
vn 0.577350 -0.577350 0.577350
vn 0.577350 -0.577350 0.577350
vn 0.577350 -0.577350 0.577350
vn 0.577350 -0.577350 -0.577350
vn 0.577350 -0.577350 -0.577350
vn 0.577350 -0.577350 -0.577350
vn 0.577350 0.577350 0.577350
vn 0.577350 0.577350 0.577350
vn 0.577350 0.577350 0.577350
vn 0.577350 0.577350 -0.577350
vn 0.577350 0.577350 -0.577350
vn 0.577350 0.577350 -0.577350
vn -0.577350 0.577350 0.577350
vn -0.577350 0.577350 0.577350
vn -0.577350 0.577350 0.577350
vn -0.577350 0.577350 -0.577350
vn -0.577350 0.577350 -0.577350
vn -0.577350 0.577350 -0.577350
vn -0.577350 -0.577350 0.577350
vn -0.577350 -0.577350 0.577350
vn -0.577350 -0.577350 0.577350
vn -0.577350 -0.577350 -0.577350
vn -0.577350 -0.577350 -0.577350
vn -0.577350 -0.577350 -0.577350
s off
g pCube1
usemtl initialShadingGroup
f 1/17/1 3/14/2 19/13/3 21/18/4
f 2/25/5 1/26/6 6/27/7 5/28/8
f 3/14/9 2/19/10 8/20/11 7/15/12
f 4/1/13 6/5/14 22/6/15 24/2/16
f 5/11/17 4/1/18 12/4/19 11/12/20
f 7/15/21 9/21/22 14/22/23 13/16/24
f 9/29/25 8/30/26 11/31/27 10/32/28
f 10/9/29 12/4/30 18/3/31 17/10/32
f 13/16/33 15/23/34 20/24/35 19/13/36
f 15/33/37 14/34/38 17/35/39 16/36/40
f 16/7/41 18/3/42 24/2/43 23/8/44
f 21/37/45 20/38/46 23/39/47 22/40/48
f 2/25/49 5/28/50 11/31/51 8/30/52
f 9/29/53 10/32/54 17/35/55 14/34/56
f 15/33/57 16/36/58 23/39/59 20/38/60
f 21/37/61 22/40/62 6/27/63 1/26/64
f 4/1/65 24/2/66 18/3/67 12/4/68
f 19/13/69 3/14/70 7/15/71 13/16/72
f 1/17/73 2/19/74 3/14/75
f 4/1/76 5/11/77 6/5/78
f 7/15/79 8/20/80 9/21/81
f 10/9/82 11/12/83 12/4/84
f 13/16/85 14/22/86 15/23/87
f 16/7/88 17/10/89 18/3/90
f 19/13/91 20/24/92 21/18/93
f 22/6/94 23/8/95 24/2/96
